# xmcd CD database file
#
# Track frame offsets:
#	150
#	14922
#	30540
#	45307
#	63285
#	78190
#	91807
#	106250
#	130965
#	146545
#	160380
#	175315
#	197890
#	220705
#	239857
#	255310
#	268707
#	285550
#	300242
#	318697
#
# Disc length: 4475 seconds
#
# Revision: 0
# Processed by: cddbd v1.5.1PL0 Copyright (c) Steve Scherf et al.
# Submitted via: CDex 1.51
#
DISCID=18117914
DTITLE=Various Artist - '70s Disco Hits
DYEAR=2002
DGENRE=Disco
TTITLE0=Can'ｔ Give You Anything (But My Love) - THE STYLISTICS
TTITLE1=The Hustle - VAN McCOY and THE SOUL CITY SYMPHONY
TTITLE2=Kung Fu Fighting - CARL DOUGLAS
TTITLE3=Pick Up The Pieces - AVERAGE WHITE BAND
TTITLE4=Rock Your Baby - GEORGE McCRAE
TTITLE5=Venus - SHOCKING BLUE
TTITLE6=That's The Way (I Like It) - K.C. and THE SUNSHINE BAND
TTITLE7=Fly Robin Fly - SILVER CONVENTION
TTITLE8=Hello Mr. Monkey - ARABESQUE
TTITLE9=Dschinghis Khan - GEGHIS KHAN
TTITLE10=Don't Let Me Be Misunderstood - SANTA ESMWRALDA
TTITLE11=Sunshine Day - OSIBISA
TTITLE12=Always There - SIDE EFFECT
TTITLE13=Clap Your Hands Together - FUNKY BUREAU
TTITLE14=And The Beat Goes On - THE WHISPERS
TTITLE15=Doctor's Orders - CAROL DOUGLAS
TTITLE16=Lady Bump - PENNY MCLEAN
TTITLE17=Save The Last Dance For Me - RAMONA WULF
TTITLE18=Sexy Bus Stop (Instrumental) - DR. DRAGON and THE ORIENTAL EXPRESS
TTITLE19=Can'ｔ Take My Eyes Off You - BOYS TOWN GANG
EXTD=YEAR: 2002
EXTT0=
EXTT1=
EXTT2=
EXTT3=
EXTT4=
EXTT5=
EXTT6=
EXTT7=
EXTT8=
EXTT9=
EXTT10=
EXTT11=
EXTT12=
EXTT13=
EXTT14=
EXTT15=
EXTT16=
EXTT17=
EXTT18=
EXTT19=
PLAYORDER=
